<svg width="392" height="392" viewBox="0 0 392 392" fill="none" xmlns="http://www.w3.org/2000/svg">
<path d="M345.576 222.064C346.748 219.657 347.782 217.129 348.68 214.479C358.958 184.142 343.416 147.808 310.684 139.038C307.144 94.5935 275.913 64.1077 240.645 58.9059C200.277 52.9514 163.292 78.596 150.987 119.36C136.153 114.107 121.7 114.746 108.082 122.704C101.904 125.562 96.2518 129.779 91.1793 135.326C83.7313 143.468 78.894 153.75 76.9222 164.589C74.0018 165.048 71.1324 165.51 68.4276 166.479C52.6574 172.135 42.7045 183.777 39.9762 201.312C38.2749 212.229 41.7049 223.122 43.6179 227.525C51.1717 244.914 68.6902 254.776 86.487 252.166C87.3729 252.036 88.6587 252.436 89.4231 253.075C90.3639 280.872 103.86 305.454 124.107 319.496C156.592 342.028 198.387 335.086 224.753 304.188C236.051 315.744 249.5 321.358 265.294 319.319C280.997 317.293 293.193 308.626 302.091 294.537C306.199 295.642 310.1 297.238 314.129 297.677C329.907 299.402 342.722 293.126 352.122 278.939C355.72 273.51 359.123 266.47 359.123 254.134C359.119 241.417 354.07 229.83 345.576 222.064Z" fill="#C7EDE6"/>
<path d="M275.055 260.139C275.055 260.139 320.695 260.139 320.974 260.139C331.514 260.139 340.056 251.441 340.056 240.715C340.056 231.354 333.553 223.55 324.894 221.703C324.992 220.884 325.062 220.057 325.062 219.21C325.062 208.101 316.215 199.093 305.297 199.093C298.853 199.093 293.145 202.248 289.539 207.105C288.618 194.738 277.763 185.2 265.063 186.78C255.776 187.937 248.097 195.243 246.388 204.6C245.839 207.599 245.898 210.516 246.443 213.248C243.953 210.52 240.41 208.799 236.462 208.799C229.238 208.799 223.342 214.522 222.876 221.758C219.594 221.021 216.027 221.068 212.268 222.503C205.087 225.247 199.971 232.131 199.669 239.935C199.246 251.017 207.944 260.139 218.736 260.139C219.555 260.139 222.436 260.139 223.103 260.139H262.73" fill="#FDFCEF"/>
<path d="M320.974 262.138H275.055C273.973 262.138 273.095 261.244 273.095 260.143C273.095 259.041 273.973 258.148 275.055 258.148H320.974C330.417 258.148 338.096 250.327 338.096 240.715C338.096 232.507 332.377 225.341 324.49 223.66C323.49 223.448 322.82 222.491 322.945 221.456C323.036 220.72 323.098 219.971 323.098 219.214C323.098 209.222 315.109 201.088 305.294 201.088C299.68 201.088 294.506 203.722 291.095 208.313C290.605 208.975 289.774 209.261 288.979 209.022C288.199 208.787 287.638 208.089 287.579 207.262C287.172 201.794 284.541 196.659 280.359 193.166C276.133 189.646 270.786 188.082 265.294 188.76C256.842 189.818 249.857 196.478 248.309 204.969C247.823 207.615 247.842 210.269 248.36 212.856C248.532 213.734 248.117 214.62 247.333 215.028C246.549 215.443 245.596 215.267 245 214.612C242.758 212.158 239.724 210.806 236.455 210.806C230.332 210.806 225.224 215.678 224.824 221.892C224.785 222.476 224.502 223.009 224.044 223.358C223.585 223.71 223.005 223.832 222.444 223.714C219.163 222.974 216.051 223.201 212.95 224.381C206.435 226.87 201.884 233.154 201.621 240.022C201.437 244.816 203.131 249.359 206.388 252.805C209.65 256.254 214.032 258.156 218.728 258.156H262.722C263.804 258.156 264.682 259.049 264.682 260.151C264.682 261.252 263.804 262.146 262.722 262.146H218.74C212.966 262.146 207.576 259.814 203.574 255.576C199.571 251.339 197.49 245.76 197.713 239.869C198.039 231.417 203.609 223.695 211.582 220.653C214.702 219.457 217.936 219.061 221.214 219.461C222.688 212.225 229.014 206.823 236.466 206.823C239.136 206.823 241.747 207.533 244.048 208.842C244.048 207.313 244.185 205.776 244.463 204.256C246.325 194.071 254.698 186.075 264.828 184.812C271.397 184.001 277.795 185.879 282.856 190.096C286.772 193.362 289.551 197.835 290.809 202.77C294.761 199.136 299.861 197.113 305.302 197.113C317.281 197.113 327.026 207.031 327.026 219.226C327.026 219.551 327.018 219.881 327.003 220.206C335.803 222.883 342.024 231.245 342.024 240.727C342.016 252.53 332.577 262.138 320.974 262.138Z" fill="#472B29"/>
<path d="M263.996 216.784C256.936 216.321 250.86 221.198 250.425 227.674C250.37 228.477 250.406 229.269 250.523 230.041C249.163 228.505 247.144 227.458 244.831 227.309C240.598 227.031 236.94 229.83 236.407 233.632C235.635 233.42 234.835 233.279 234 233.224C227.823 232.821 222.507 237.086 222.127 242.754" fill="#FDFCEF"/>
<path d="M222.127 243.726C222.103 243.726 222.08 243.726 222.06 243.722C221.519 243.687 221.112 243.22 221.147 242.679C221.562 236.486 227.38 231.825 234.063 232.24C234.596 232.276 235.129 232.342 235.659 232.448C236.729 228.673 240.598 226.039 244.894 226.325C246.552 226.431 248.109 226.948 249.434 227.815C249.437 227.744 249.441 227.674 249.445 227.603C249.916 220.598 256.454 215.279 264.059 215.8C264.6 215.835 265.008 216.302 264.972 216.843C264.937 217.384 264.522 217.874 263.93 217.752C257.419 217.442 251.801 221.801 251.401 227.732C251.354 228.45 251.386 229.175 251.491 229.888C251.558 230.316 251.331 230.739 250.939 230.923C250.555 231.108 250.084 231.01 249.79 230.684C248.528 229.265 246.744 228.411 244.765 228.277C241.056 228.073 237.838 230.449 237.379 233.757C237.34 234.036 237.183 234.287 236.948 234.443C236.713 234.6 236.423 234.643 236.149 234.569C235.416 234.369 234.675 234.244 233.934 234.189C228.297 233.797 223.448 237.689 223.103 242.805C223.068 243.33 222.64 243.726 222.127 243.726Z" fill="#472B29"/>
<path d="M328.7 223.299C322.067 220.171 314.396 222.386 311.566 228.242C311.213 228.971 310.954 229.72 310.781 230.48" fill="#FDFCEF"/>
<path d="M310.781 231.46C310.711 231.46 310.636 231.452 310.562 231.437C310.033 231.315 309.704 230.79 309.825 230.261C310.017 229.418 310.307 228.595 310.683 227.815C313.741 221.484 322.008 219.057 329.119 222.405C329.609 222.64 329.821 223.22 329.59 223.71C329.358 224.204 328.77 224.4 328.284 224.181C322.138 221.28 315.039 223.295 312.448 228.665C312.134 229.316 311.895 229.998 311.734 230.7C311.632 231.155 311.228 231.46 310.781 231.46Z" fill="#472B29"/>
<path d="M272.338 259.39H141.41C131.347 259.39 123.115 251.119 123.115 241.006V163.178C123.115 153.068 131.347 144.793 141.41 144.793H272.342C282.405 144.793 290.637 153.064 290.637 163.178V241.009C290.633 251.115 282.401 259.39 272.338 259.39Z" fill="#C0E5E4"/>
<path d="M272.338 262.15H141.41C129.811 262.15 120.371 252.664 120.371 241.009V163.178C120.371 151.524 129.811 142.037 141.41 142.037H272.338C283.937 142.037 293.377 151.524 293.377 163.178V241.009C293.381 252.664 283.941 262.15 272.338 262.15ZM141.41 147.553C132.837 147.553 125.863 154.562 125.863 163.178V241.009C125.863 249.63 132.837 256.635 141.41 256.635H272.338C280.915 256.635 287.889 249.626 287.889 241.009V163.178C287.889 154.558 280.915 147.553 272.338 147.553H141.41Z" fill="#472B29"/>
<path d="M131.481 252.268C134.789 255.847 137.086 256.544 142.139 256.544H272.526C277.579 256.544 279.092 256.588 282.401 253.012L206.941 183.977L131.481 252.268Z" fill="#A8DBDB"/>
<path d="M282.401 151.312C279.092 148.152 276.795 147.537 271.742 147.537H141.355C136.302 147.537 134.789 147.498 131.481 150.657L208.74 211.574L282.401 151.312Z" fill="#E0FCF8"/>
<path d="M209.073 214.859C208.756 214.859 208.434 214.757 208.172 214.549L127.31 151.288C126.671 150.787 126.553 149.858 127.055 149.215C127.553 148.572 128.474 148.45 129.117 148.96L209.05 211.488L284.604 148.987C285.231 148.47 286.156 148.556 286.673 149.187C287.191 149.818 287.101 150.748 286.474 151.265L210.006 214.518C209.74 214.749 209.406 214.859 209.073 214.859Z" fill="#472B29"/>
<path d="M130.414 255.949C130.011 255.949 129.607 255.784 129.317 255.455C128.776 254.847 128.827 253.91 129.434 253.369L179.544 208.387C180.147 207.834 181.076 207.893 181.621 208.501C182.162 209.108 182.111 210.045 181.504 210.586L131.394 255.572C131.112 255.823 130.763 255.949 130.414 255.949ZM283.337 255.949C282.989 255.949 282.64 255.827 282.357 255.572L232.244 210.582C231.641 210.038 231.59 209.105 232.127 208.497C232.668 207.889 233.597 207.831 234.204 208.383L284.318 253.369C284.921 253.914 284.972 254.847 284.435 255.455C284.141 255.784 283.741 255.949 283.337 255.949Z" fill="#472B29"/>
<path d="M128.537 274.286H124.213C123.131 274.286 122.253 273.408 122.253 272.326C122.253 271.244 123.131 270.366 124.213 270.366H128.537C129.619 270.366 130.497 271.244 130.497 272.326C130.497 273.408 129.623 274.286 128.537 274.286Z" fill="#472B29"/>
<path d="M268.52 94.08H229.32C228.238 94.08 227.36 93.2019 227.36 92.12C227.36 91.0381 228.238 90.16 229.32 90.16H268.52C269.602 90.16 270.48 91.0381 270.48 92.12C270.48 93.2019 269.602 94.08 268.52 94.08ZM284.2 94.08H276.36C275.278 94.08 274.4 93.2019 274.4 92.12C274.4 91.0381 275.278 90.16 276.36 90.16H284.2C285.282 90.16 286.16 91.0381 286.16 92.12C286.16 93.2019 285.282 94.08 284.2 94.08ZM303.8 101.92H264.6C263.518 101.92 262.64 101.042 262.64 99.96C262.64 98.8781 263.518 98 264.6 98H303.8C304.882 98 305.76 98.8781 305.76 99.96C305.76 101.042 304.886 101.92 303.8 101.92ZM256.76 101.92H252.84C251.758 101.92 250.88 101.042 250.88 99.96C250.88 98.8781 251.758 98 252.84 98H256.76C257.842 98 258.72 98.8781 258.72 99.96C258.72 101.042 257.842 101.92 256.76 101.92ZM244.51 101.92H237.16C236.078 101.92 235.2 101.042 235.2 99.96C235.2 98.8781 236.078 98 237.16 98H244.51C245.592 98 246.47 98.8781 246.47 99.96C246.47 101.042 245.592 101.92 244.51 101.92ZM280.28 86.24H260.68C259.598 86.24 258.72 85.3619 258.72 84.28C258.72 83.1981 259.598 82.32 260.68 82.32H280.28C281.362 82.32 282.24 83.1981 282.24 84.28C282.24 85.3619 281.366 86.24 280.28 86.24ZM268.52 109.76H260.68C259.598 109.76 258.72 108.882 258.72 107.8C258.72 106.718 259.598 105.84 260.68 105.84H268.52C269.602 105.84 270.48 106.718 270.48 107.8C270.48 108.882 269.602 109.76 268.52 109.76Z" fill="white"/>
<path d="M64.3076 196H25.48C24.398 196 23.52 195.122 23.52 194.04C23.52 192.958 24.398 192.08 25.48 192.08H64.3076C65.3895 192.08 66.2676 192.958 66.2676 194.04C66.2676 195.122 65.3934 196 64.3076 196ZM76.44 196H72.52C71.438 196 70.56 195.122 70.56 194.04C70.56 192.958 71.438 192.08 72.52 192.08H76.44C77.5219 192.08 78.4 192.958 78.4 194.04C78.4 195.122 77.5258 196 76.44 196ZM96.0047 203.84H60.76C59.678 203.84 58.8 202.962 58.8 201.88C58.8 200.798 59.678 199.92 60.76 199.92H96.0047C97.0866 199.92 97.9647 200.798 97.9647 201.88C97.9647 202.962 97.0866 203.84 96.0047 203.84ZM52.92 203.84H49C47.918 203.84 47.04 202.962 47.04 201.88C47.04 200.798 47.918 199.92 49 199.92H52.92C54.0019 199.92 54.88 200.798 54.88 201.88C54.88 202.962 54.0058 203.84 52.92 203.84ZM41.16 203.84H33.32C32.238 203.84 31.36 202.962 31.36 201.88C31.36 200.798 32.238 199.92 33.32 199.92H41.16C42.2419 199.92 43.12 200.798 43.12 201.88C43.12 202.962 42.2458 203.84 41.16 203.84ZM64.68 211.68H56.84C55.758 211.68 54.88 210.802 54.88 209.72C54.88 208.638 55.758 207.76 56.84 207.76H64.68C65.7619 207.76 66.64 208.638 66.64 209.72C66.64 210.802 65.7619 211.68 64.68 211.68ZM76.44 176.4C75.7461 176.4 73.2138 176.4 72.52 176.4C71.438 176.4 70.56 177.278 70.56 178.36C70.56 179.442 71.438 180.32 72.52 180.32C73.2138 180.32 75.7461 180.32 76.44 180.32C77.5219 180.32 78.4 179.442 78.4 178.36C78.4 177.278 77.5219 176.4 76.44 176.4ZM76.44 184.24C75.7461 184.24 57.5338 184.24 56.84 184.24C55.758 184.24 54.88 185.118 54.88 186.2C54.88 187.282 55.758 188.16 56.84 188.16C57.5338 188.16 75.7461 188.16 76.44 188.16C77.5219 188.16 78.4 187.282 78.4 186.2C78.4 185.118 77.5219 184.24 76.44 184.24ZM96.04 192.08C95.3461 192.08 84.9738 192.08 84.28 192.08C83.198 192.08 82.32 192.958 82.32 194.04C82.32 195.122 83.198 196 84.28 196C84.9738 196 95.3461 196 96.04 196C97.1219 196 98 195.122 98 194.04C98 192.958 97.1219 192.08 96.04 192.08Z" fill="white"/>
<path d="M139.16 272.44C139.16 272.44 145.303 272.44 152.88 272.44C160.457 272.44 166.6 266.297 166.6 258.72C166.6 251.738 161.367 246.043 154.624 245.176C154.734 244.475 154.84 243.773 154.84 243.04C154.84 235.463 148.697 229.32 141.12 229.32C137.075 229.32 133.476 231.104 130.967 233.887C129.462 226.799 123.178 221.48 115.64 221.48C106.981 221.48 99.96 228.501 99.96 237.16C99.96 237.909 100.078 238.626 100.179 239.347C98.5017 237.999 96.4006 237.16 94.08 237.16C89.2662 237.16 85.2796 240.637 84.4564 245.216C83.7547 245.106 83.053 245 82.32 245C74.7426 245 68.6 251.143 68.6 258.72C68.6 266.297 74.7426 272.44 82.32 272.44C89.8973 272.44 111.72 272.44 111.72 272.44V274.4H139.16V272.44Z" fill="#FDFCEF"/>
<path d="M146.02 254.8C145.479 254.8 145.04 254.361 145.04 253.82C145.04 249.026 148.94 245.125 153.735 245.125C153.868 245.161 156.624 245.122 158.611 245.659C159.132 245.8 159.442 246.337 159.301 246.858C159.16 247.383 158.623 247.693 158.101 247.548C156.361 247.078 153.789 247.078 153.738 247.085C150.022 247.085 147 250.108 147 253.82C147 254.361 146.561 254.8 146.02 254.8ZM119.56 270.48C119.04 270.48 118.542 270.686 118.174 271.054C117.806 271.422 117.6 271.92 117.6 272.44C117.6 272.96 117.806 273.458 118.174 273.826C118.542 274.193 119.04 274.4 119.56 274.4C120.08 274.4 120.578 274.193 120.946 273.826C121.313 273.458 121.52 272.96 121.52 272.44C121.52 271.92 121.313 271.422 120.946 271.054C120.578 270.686 120.08 270.48 119.56 270.48Z" fill="#472B29"/>
<path d="M152.88 274.4H139.16C138.078 274.4 137.2 273.522 137.2 272.44C137.2 271.358 138.078 270.48 139.16 270.48H152.88C159.364 270.48 164.64 265.204 164.64 258.72C164.64 252.856 160.23 247.869 154.377 247.121C153.852 247.05 153.378 246.776 153.06 246.352C152.743 245.929 152.61 245.396 152.692 244.875C152.782 244.271 152.88 243.667 152.88 243.04C152.88 236.556 147.604 231.28 141.12 231.28C137.788 231.28 134.699 232.672 132.422 235.2C131.932 235.745 131.163 235.976 130.462 235.78C129.748 235.588 129.203 235.016 129.05 234.294C127.714 228.007 122.073 223.44 115.64 223.44C108.074 223.44 101.92 229.594 101.92 237.16C101.92 237.721 102.002 238.258 102.081 238.799C102.194 239.594 101.834 240.516 101.132 240.915C100.43 241.315 99.5798 241.378 98.9526 240.876C97.5218 239.728 95.8401 239.12 94.08 239.12C90.2933 239.12 87.0554 241.829 86.3851 245.564C86.1969 246.611 85.2247 247.313 84.1546 247.152C83.5509 247.058 82.9472 246.96 82.32 246.96C75.8363 246.96 70.56 252.236 70.56 258.72C70.56 265.204 75.8363 270.48 82.32 270.48H111.72C112.802 270.48 113.68 271.358 113.68 272.44C113.68 273.522 112.802 274.4 111.72 274.4H82.32C73.6725 274.4 66.64 267.368 66.64 258.72C66.64 250.072 73.6725 243.04 82.32 243.04C82.5513 243.04 82.7747 243.048 83.0021 243.064C84.625 238.414 89.0271 235.2 94.08 235.2C95.4481 235.2 96.7809 235.439 98.0431 235.906C98.6899 226.76 106.334 219.52 115.64 219.52C122.818 219.52 129.227 223.938 131.92 230.394C134.585 228.442 137.808 227.36 141.12 227.36C149.768 227.36 156.8 234.392 156.8 243.04C156.8 243.228 156.796 243.412 156.784 243.597C163.617 245.353 168.56 251.542 168.56 258.72C168.56 267.368 161.528 274.4 152.88 274.4Z" fill="#472B29"/>
<path d="M131.32 270.48C130.697 270.48 128.023 270.48 127.4 270.48C126.318 270.48 125.44 271.358 125.44 272.44C125.44 273.522 126.318 274.4 127.4 274.4C128.023 274.4 130.697 274.4 131.32 274.4C132.402 274.4 133.28 273.522 133.28 272.44C133.28 271.358 132.402 270.48 131.32 270.48Z" fill="#472B29"/>
</svg>
