<svg width="18" height="18" viewBox="0 0 18 18" fill="none" xmlns="http://www.w3.org/2000/svg">
<path d="M11.113 8.99872L17.5567 2.56994C17.8389 2.28775 17.9974 1.90503 17.9974 1.50597C17.9974 1.1069 17.8389 0.724176 17.5567 0.441993C17.2745 0.159811 16.8918 0.00128174 16.4928 0.00128174C16.0937 0.00128174 15.711 0.159811 15.4288 0.441993L9 6.88577L2.57121 0.441993C2.28903 0.159811 1.90631 0.00128174 1.50724 0.00128174C1.10817 0.00128174 0.725452 0.159811 0.443269 0.441993C0.161086 0.724176 0.00255743 1.1069 0.00255743 1.50597C0.00255743 1.90503 0.161086 2.28775 0.443269 2.56994L6.88704 8.99872L0.443269 15.4275C0.302812 15.5668 0.191329 15.7326 0.115249 15.9152C0.0391699 16.0978 0 16.2937 0 16.4915C0 16.6893 0.0391699 16.8852 0.115249 17.0678C0.191329 17.2504 0.302812 17.4161 0.443269 17.5555C0.582579 17.6959 0.74832 17.8074 0.930933 17.8835C1.11355 17.9596 1.30941 17.9987 1.50724 17.9987C1.70507 17.9987 1.90094 17.9596 2.08355 17.8835C2.26616 17.8074 2.4319 17.6959 2.57121 17.5555L9 11.1117L15.4288 17.5555C15.5681 17.6959 15.7338 17.8074 15.9165 17.8835C16.0991 17.9596 16.2949 17.9987 16.4928 17.9987C16.6906 17.9987 16.8865 17.9596 17.0691 17.8835C17.2517 17.8074 17.4174 17.6959 17.5567 17.5555C17.6972 17.4161 17.8087 17.2504 17.8848 17.0678C17.9608 16.8852 18 16.6893 18 16.4915C18 16.2937 17.9608 16.0978 17.8848 15.9152C17.8087 15.7326 17.6972 15.5668 17.5567 15.4275L11.113 8.99872Z" fill="black"/>
</svg>
